<svg xmlns="http://www.w3.org/2000/svg" width="391" height="879" fill="none" viewBox="0 0 391 879">
  <mask id="a" width="391" height="879" x="0" y="0" fill="#000" maskUnits="userSpaceOnUse">
    <path fill="#fff" d="M0 0h391v879H0z"/>
    <path fill-rule="evenodd" d="M206 64c0-22.091-17.909-40-40-40H64c-22.091 0-40 17.909-40 40v460c0 22.091 17.909 40 40 40h81c22.091 0 40 17.909 40 40v211c0 22.091 17.909 40 40 40h102c22.091 0 40-17.909 40-40V487c0-22.091-17.909-40-40-40h-81c-22.091 0-40-17.909-40-40V64Z" clip-rule="evenodd"/>
  </mask>
  <path fill="#D9D9D9" fill-rule="evenodd" d="M206 64c0-22.091-17.909-40-40-40H64c-22.091 0-40 17.909-40 40v460c0 22.091 17.909 40 40 40h81c22.091 0 40 17.909 40 40v211c0 22.091 17.909 40 40 40h102c22.091 0 40-17.909 40-40V487c0-22.091-17.909-40-40-40h-81c-22.091 0-40-17.909-40-40V64Z" clip-rule="evenodd"/>
  <path fill="#5A5A5A" d="M64 48h102V0H64v48ZM48 524V64H0v460h48Zm97 16H64v48h81v-48Zm64 275V604h-48v211h48Zm118 16H225v48h102v-48Zm16-344v328h48V487h-48Zm-97-16h81v-48h-81v48ZM182 64v343h48V64h-48Zm64 359c-8.837 0-16-7.163-16-16h-48c0 35.346 28.654 64 64 64v-48Zm145 64c0-35.346-28.654-64-64-64v48c8.837 0 16 7.163 16 16h48Zm-64 392c35.346 0 64-28.654 64-64h-48c0 8.837-7.163 16-16 16v48Zm-166-64c0 35.346 28.654 64 64 64v-48c-8.837 0-16-7.163-16-16h-48Zm-16-227c8.837 0 16 7.163 16 16h48c0-35.346-28.654-64-64-64v48ZM0 524c0 35.346 28.654 64 64 64v-48c-8.837 0-16-7.163-16-16H0ZM166 48c8.837 0 16 7.163 16 16h48c0-35.346-28.654-64-64-64v48ZM64 0C28.654 0 0 28.654 0 64h48c0-8.837 7.163-16 16-16V0Z" mask="url(#a)"/>
</svg>
